<svg width="13" height="15" viewBox="0 0 13 15" fill="none" xmlns="http://www.w3.org/2000/svg">
<path d="M1.44445 15C1.04722 15 0.707057 14.853 0.423945 14.559C0.140834 14.265 -0.000480255 13.912 1.22618e-06 13.5V3C1.22618e-06 2.5875 0.141557 2.23425 0.424668 1.94025C0.707779 1.64625 1.0477 1.4995 1.44445 1.5H2.16667V0H3.61111V1.5H9.38889V0H10.8333V1.5H11.5556C11.9528 1.5 12.2929 1.647 12.5761 1.941C12.8592 2.235 13.0005 2.588 13 3V13.5C13 13.9125 12.8584 14.2657 12.5753 14.5597C12.2922 14.8537 11.9523 15.0005 11.5556 15H1.44445ZM1.44445 13.5H11.5556V6H1.44445V13.5Z" fill="white"/>
</svg>
