<svg width="29" height="12" viewBox="0 0 29 12" fill="none" xmlns="http://www.w3.org/2000/svg">
<path d="M7.985 7.925C7.985 9.92 6.62 11 4.715 11H0.245V0.32H4.535C6.62 0.32 7.835 1.49 7.835 3.32C7.835 4.505 7.055 5.27 6.515 5.525C7.16 5.825 7.985 6.5 7.985 7.925ZM5.75 3.41C5.75 2.675 5.255 2.18 4.37 2.18H2.33V4.64H4.37C5.255 4.64 5.75 4.145 5.75 3.41ZM5.9 7.82C5.9 7.1 5.45 6.515 4.505 6.515H2.33V9.14H4.505C5.45 9.14 5.9 8.54 5.9 7.82ZM17.813 7.34C17.813 9.605 16.073 11.09 13.883 11.09C11.693 11.09 9.95305 9.605 9.95305 7.34V0.32H12.038V7.265C12.038 8.495 12.758 9.23 13.883 9.23C15.008 9.23 15.743 8.495 15.743 7.265V0.32H17.813V7.34ZM27.8926 5.615C27.8926 7.22 28.0126 8.78 26.8126 9.98C26.1076 10.685 25.1026 11 23.9926 11H20.1376V0.32H23.9926C25.1026 0.32 26.1076 0.634999 26.8126 1.34C28.0126 2.54 27.8926 4.01 27.8926 5.615ZM25.8076 5.615C25.8076 3.995 25.7476 3.32 25.3576 2.84C24.9976 2.405 24.5176 2.18 23.7976 2.18H22.2226V9.14H23.7976C24.5176 9.14 24.9976 8.915 25.3576 8.48C25.7476 8 25.8076 7.235 25.8076 5.615Z" fill="white"/>
</svg>
