<svg width="25" height="11" viewBox="0 0 25 11" fill="none" xmlns="http://www.w3.org/2000/svg">
<path d="M6.787 7.335C6.787 9.064 5.604 10 3.953 10H0.0790001V0.744H3.797C5.604 0.744 6.657 1.758 6.657 3.344C6.657 4.371 5.981 5.034 5.513 5.255C6.072 5.515 6.787 6.1 6.787 7.335ZM4.85 3.422C4.85 2.785 4.421 2.356 3.654 2.356H1.886V4.488H3.654C4.421 4.488 4.85 4.059 4.85 3.422ZM4.98 7.244C4.98 6.62 4.59 6.113 3.771 6.113H1.886V8.388H3.771C4.59 8.388 4.98 7.868 4.98 7.244ZM15.3046 6.828C15.3046 8.791 13.7966 10.078 11.8986 10.078C10.0006 10.078 8.49264 8.791 8.49264 6.828V0.744H10.2996V6.763C10.2996 7.829 10.9236 8.466 11.8986 8.466C12.8736 8.466 13.5106 7.829 13.5106 6.763V0.744H15.3046V6.828ZM24.0402 5.333C24.0402 6.724 24.1442 8.076 23.1042 9.116C22.4932 9.727 21.6222 10 20.6602 10H17.3192V0.744H20.6602C21.6222 0.744 22.4932 1.017 23.1042 1.628C24.1442 2.668 24.0402 3.942 24.0402 5.333ZM22.2332 5.333C22.2332 3.929 22.1812 3.344 21.8432 2.928C21.5312 2.551 21.1152 2.356 20.4912 2.356H19.1262V8.388H20.4912C21.1152 8.388 21.5312 8.193 21.8432 7.816C22.1812 7.4 22.2332 6.737 22.2332 5.333Z" fill="white"/>
</svg>
